<svg width="20" height="21" viewBox="0 0 20 21" fill="none" xmlns="http://www.w3.org/2000/svg">
<path fill-rule="evenodd" clip-rule="evenodd" d="M0 4.25C0 3.18913 0.421427 2.17172 1.17157 1.42157C1.92172 0.671427 2.93913 0.25 4 0.25H16C17.0609 0.25 18.0783 0.671427 18.8284 1.42157C19.5786 2.17172 20 3.18913 20 4.25V16.25C20 17.3109 19.5786 18.3283 18.8284 19.0784C18.0783 19.8286 17.0609 20.25 16 20.25H4C2.93913 20.25 1.92172 19.8286 1.17157 19.0784C0.421427 18.3283 0 17.3109 0 16.25V4.25ZM4 2.25C3.46957 2.25 2.96086 2.46071 2.58579 2.83579C2.21071 3.21086 2 3.71957 2 4.25V16.25C2 16.7804 2.21071 17.2891 2.58579 17.6642C2.96086 18.0393 3.46957 18.25 4 18.25H10V11.25H9C8.73478 11.25 8.48043 11.1446 8.29289 10.9571C8.10536 10.7696 8 10.5152 8 10.25C8 9.98478 8.10536 9.73043 8.29289 9.54289C8.48043 9.35536 8.73478 9.25 9 9.25H10V7.75C10 6.82174 10.3687 5.9315 11.0251 5.27513C11.6815 4.61875 12.5717 4.25 13.5 4.25H14.1C14.3652 4.25 14.6196 4.35536 14.8071 4.54289C14.9946 4.73043 15.1 4.98478 15.1 5.25C15.1 5.51522 14.9946 5.76957 14.8071 5.95711C14.6196 6.14464 14.3652 6.25 14.1 6.25H13.5C13.303 6.25 13.108 6.2888 12.926 6.36418C12.744 6.43956 12.5786 6.55005 12.4393 6.68934C12.3001 6.82863 12.1896 6.99399 12.1142 7.17597C12.0388 7.35796 12 7.55302 12 7.75V9.25H14.1C14.3652 9.25 14.6196 9.35536 14.8071 9.54289C14.9946 9.73043 15.1 9.98478 15.1 10.25C15.1 10.5152 14.9946 10.7696 14.8071 10.9571C14.6196 11.1446 14.3652 11.25 14.1 11.25H12V18.25H16C16.5304 18.25 17.0391 18.0393 17.4142 17.6642C17.7893 17.2891 18 16.7804 18 16.25V4.25C18 3.71957 17.7893 3.21086 17.4142 2.83579C17.0391 2.46071 16.5304 2.25 16 2.25H4Z" fill="#9F37A4"/>
</svg>
