<svg width="21" height="21" viewBox="0 0 21 21" fill="none" xmlns="http://www.w3.org/2000/svg">
<path fill-rule="evenodd" clip-rule="evenodd" d="M0.25 4.25C0.25 3.18913 0.671427 2.17172 1.42157 1.42157C2.17172 0.671427 3.18913 0.25 4.25 0.25H16.25C17.3109 0.25 18.3283 0.671427 19.0784 1.42157C19.8286 2.17172 20.25 3.18913 20.25 4.25V16.25C20.25 17.3109 19.8286 18.3283 19.0784 19.0784C18.3283 19.8286 17.3109 20.25 16.25 20.25H4.25C3.18913 20.25 2.17172 19.8286 1.42157 19.0784C0.671427 18.3283 0.25 17.3109 0.25 16.25V4.25ZM4.25 2.25C3.71957 2.25 3.21086 2.46071 2.83579 2.83579C2.46071 3.21086 2.25 3.71957 2.25 4.25V16.25C2.25 16.7804 2.46071 17.2891 2.83579 17.6642C3.21086 18.0393 3.71957 18.25 4.25 18.25H16.25C16.7804 18.25 17.2891 18.0393 17.6642 17.6642C18.0393 17.2891 18.25 16.7804 18.25 16.25V4.25C18.25 3.71957 18.0393 3.21086 17.6642 2.83579C17.2891 2.46071 16.7804 2.25 16.25 2.25H4.25ZM10.25 7.25C9.45435 7.25 8.69129 7.56607 8.12868 8.12868C7.56607 8.69129 7.25 9.45435 7.25 10.25C7.25 11.0456 7.56607 11.8087 8.12868 12.3713C8.69129 12.9339 9.45435 13.25 10.25 13.25C11.0456 13.25 11.8087 12.9339 12.3713 12.3713C12.9339 11.8087 13.25 11.0456 13.25 10.25C13.25 9.45435 12.9339 8.69129 12.3713 8.12868C11.8087 7.56607 11.0456 7.25 10.25 7.25ZM5.25 10.25C5.25 8.92392 5.77678 7.65215 6.71447 6.71447C7.65215 5.77678 8.92392 5.25 10.25 5.25C11.5761 5.25 12.8479 5.77678 13.7855 6.71447C14.7232 7.65215 15.25 8.92392 15.25 10.25C15.25 11.5761 14.7232 12.8479 13.7855 13.7855C12.8479 14.7232 11.5761 15.25 10.25 15.25C8.92392 15.25 7.65215 14.7232 6.71447 13.7855C5.77678 12.8479 5.25 11.5761 5.25 10.25ZM15.75 6.25C16.1478 6.25 16.5294 6.09196 16.8107 5.81066C17.092 5.52936 17.25 5.14782 17.25 4.75C17.25 4.35218 17.092 3.97064 16.8107 3.68934C16.5294 3.40804 16.1478 3.25 15.75 3.25C15.3522 3.25 14.9706 3.40804 14.6893 3.68934C14.408 3.97064 14.25 4.35218 14.25 4.75C14.25 5.14782 14.408 5.52936 14.6893 5.81066C14.9706 6.09196 15.3522 6.25 15.75 6.25Z" fill="#0040A6"/>
</svg>
