<svg width="21" height="21" viewBox="0 0 21 21" fill="none" xmlns="http://www.w3.org/2000/svg">
<path fill-rule="evenodd" clip-rule="evenodd" d="M4.5 0.25C3.43913 0.25 2.42172 0.671427 1.67157 1.42157C0.921427 2.17172 0.5 3.18913 0.5 4.25V16.25C0.5 17.3109 0.921427 18.3283 1.67157 19.0784C2.42172 19.8286 3.43913 20.25 4.5 20.25H16.5C17.5609 20.25 18.5783 19.8286 19.3284 19.0784C20.0786 18.3283 20.5 17.3109 20.5 16.25V4.25C20.5 3.18913 20.0786 2.17172 19.3284 1.42157C18.5783 0.671427 17.5609 0.25 16.5 0.25H4.5ZM2.5 4.25C2.5 3.71957 2.71071 3.21086 3.08579 2.83579C3.46086 2.46071 3.96957 2.25 4.5 2.25H16.5C17.0304 2.25 17.5391 2.46071 17.9142 2.83579C18.2893 3.21086 18.5 3.71957 18.5 4.25V16.25C18.5 16.7804 18.2893 17.2891 17.9142 17.6642C17.5391 18.0393 17.0304 18.25 16.5 18.25H4.5C3.96957 18.25 3.46086 18.0393 3.08579 17.6642C2.71071 17.2891 2.5 16.7804 2.5 16.25V4.25ZM7.5 9.25C7.5 8.98478 7.39464 8.73043 7.20711 8.54289C7.01957 8.35536 6.76522 8.25 6.5 8.25C6.23478 8.25 5.98043 8.35536 5.79289 8.54289C5.60536 8.73043 5.5 8.98478 5.5 9.25V15.25C5.5 15.5152 5.60536 15.7696 5.79289 15.9571C5.98043 16.1446 6.23478 16.25 6.5 16.25C6.76522 16.25 7.01957 16.1446 7.20711 15.9571C7.39464 15.7696 7.5 15.5152 7.5 15.25V9.25ZM8 5.75C8 6.14782 7.84196 6.52936 7.56066 6.81066C7.27936 7.09196 6.89782 7.25 6.5 7.25C6.10218 7.25 5.72064 7.09196 5.43934 6.81066C5.15804 6.52936 5 6.14782 5 5.75C5 5.35218 5.15804 4.97064 5.43934 4.68934C5.72064 4.40804 6.10218 4.25 6.5 4.25C6.89782 4.25 7.27936 4.40804 7.56066 4.68934C7.84196 4.97064 8 5.35218 8 5.75ZM10.5 8.25C10.84 8.25 11.14 8.42 11.32 8.678C11.8354 8.3971 12.413 8.24995 13 8.25C15.16 8.25 16.5 10.176 16.5 11.821V15.25C16.5 15.5152 16.3946 15.7696 16.2071 15.9571C16.0196 16.1446 15.7652 16.25 15.5 16.25C15.2348 16.25 14.9804 16.1446 14.7929 15.9571C14.6054 15.7696 14.5 15.5152 14.5 15.25V11.82C14.5 11.052 13.84 10.249 13 10.249C12.476 10.249 11.897 10.534 11.5 11.212V15.25C11.5 15.5152 11.3946 15.7696 11.2071 15.9571C11.0196 16.1446 10.7652 16.25 10.5 16.25C10.2348 16.25 9.98043 16.1446 9.79289 15.9571C9.60536 15.7696 9.5 15.5152 9.5 15.25V9.25C9.5 8.98478 9.60536 8.73043 9.79289 8.54289C9.98043 8.35536 10.2348 8.25 10.5 8.25Z" fill="#0040A6"/>
</svg>
