<svg width="22" height="22" viewBox="0 0 22 22" fill="none" xmlns="http://www.w3.org/2000/svg">
<path fill-rule="evenodd" clip-rule="evenodd" d="M2.75 11.25C2.75061 9.44152 3.32801 7.68037 4.39826 6.22258C5.46851 4.76479 6.97583 3.68635 8.70108 3.14404C10.4263 2.60172 12.2796 2.6238 13.9914 3.20708C15.7033 3.79035 17.1844 4.9044 18.2197 6.38728C19.2549 7.87016 19.7901 9.64457 19.7477 11.4525C19.7052 13.2605 19.0871 15.0078 17.9834 16.4404C16.8797 17.8731 15.3478 18.9163 13.6105 19.4185C11.8731 19.9207 10.0209 19.8558 8.323 19.233C8.89991 17.6866 9.45962 16.1338 10.002 14.575C10.576 14.985 11.317 15.25 12.25 15.25C14.185 15.25 16.225 13.975 16.73 11.446C17.367 8.271 14.824 5.25 11.25 5.25C9.747 5.25 8.269 5.854 7.163 6.812C6.055 7.773 5.25 9.157 5.25 10.75C5.25 11.525 5.484 12.388 6.041 12.956C6.22976 13.1418 6.48394 13.246 6.7488 13.2462C7.01365 13.2464 7.26798 13.1425 7.457 12.957C7.64081 12.7733 7.7459 12.5253 7.75001 12.2655C7.75411 12.0056 7.65692 11.7544 7.479 11.565C6.693 10.585 7.729 8.969 8.473 8.324C9.246 7.654 10.267 7.25 11.25 7.25C13.677 7.25 15.134 9.229 14.77 11.054C14.466 12.568 13.314 13.25 12.25 13.25C11.432 13.25 10.992 12.905 10.71 12.458C10.864 11.974 10.995 11.534 11.089 11.176C11.281 10.439 11.397 9.55 10.734 8.997C10.241 8.587 9.659 8.677 9.303 8.856C8.64 9.186 8.25 9.96 8.25 10.75C8.25 11.191 8.319 11.875 8.567 12.582C7.9217 14.5066 7.24226 16.4196 6.529 18.32C5.36564 17.5438 4.41198 16.4924 3.75273 15.259C3.09347 14.0256 2.74903 12.6485 2.75 11.25ZM11.25 0.75C5.451 0.75 0.75 5.451 0.75 11.25C0.75 17.049 5.451 21.75 11.25 21.75C17.049 21.75 21.75 17.049 21.75 11.25C21.75 5.451 17.049 0.75 11.25 0.75Z" fill="#0040A6"/>
</svg>
