<svg width="22" height="20" viewBox="0 0 22 20" fill="none" xmlns="http://www.w3.org/2000/svg">
<path fill-rule="evenodd" clip-rule="evenodd" d="M6.84475 3.02475C9.43675 2.65775 12.5628 2.65775 15.1548 3.02475C17.5098 3.35875 19.3348 5.01075 19.6828 6.79075C20.1058 8.94575 20.1058 11.5538 19.6828 13.7087C19.3337 15.4887 17.5098 17.1408 15.1548 17.4748C12.5628 17.8418 9.43575 17.8418 6.84475 17.4748C4.48975 17.1408 2.66575 15.4887 2.31675 13.7087C1.89375 11.5538 1.89375 8.94575 2.31675 6.79075C2.66575 5.01075 4.48975 3.35875 6.84475 3.02475ZM15.4347 1.04475C12.6577 0.65175 9.34175 0.65175 6.56475 1.04475C3.54975 1.47175 0.89975 3.62275 0.35475 6.40675C-0.11825 8.81575 -0.11825 11.6838 0.35475 14.0928C0.89975 16.8768 3.54975 19.0278 6.56475 19.4548C9.34175 19.8477 12.6577 19.8477 15.4347 19.4548C18.4497 19.0278 21.0998 16.8768 21.6448 14.0928C22.1178 11.6838 22.1178 8.81575 21.6448 6.40675C21.0998 3.62275 18.4497 1.47175 15.4347 1.04475ZM9.55475 5.41775C9.40415 5.31727 9.2291 5.25956 9.04827 5.25078C8.86744 5.24199 8.68761 5.28247 8.52798 5.36788C8.36835 5.45329 8.23491 5.58043 8.14188 5.73574C8.04884 5.89105 7.99972 6.06871 7.99975 6.24975V14.2498C7.99972 14.4308 8.04884 14.6084 8.14188 14.7638C8.23491 14.9191 8.36835 15.0462 8.52798 15.1316C8.68761 15.217 8.86744 15.2575 9.04827 15.2487C9.2291 15.2399 9.40415 15.1822 9.55475 15.0818L15.5548 11.0817C15.6917 10.9904 15.804 10.8667 15.8817 10.7216C15.9593 10.5764 16 10.4144 16 10.2498C16 10.0851 15.9593 9.92307 15.8817 9.77793C15.804 9.63279 15.6917 9.50907 15.5548 9.41775L9.55475 5.41775ZM13.1967 10.2498L9.99975 12.3818V8.11875L13.1967 10.2498Z" fill="#0040A6"/>
</svg>
